<svg xmlns="http://www.w3.org/2000/svg" version="1.1" xmlns:xlink="http://www.w3.org/1999/xlink" xmlns:svgjs="http://svgjs.dev/svgjs" viewBox="0 0 600 600"><path d="M315.1048887559583 98.60136205499737C274.370624382179 101.5733901515143 203.74124765284958 171.3286442612148 180.83914931504034 219.2307413274583C157.93705097723108 267.1328383937018 154.61537535874152 342.4824757431484 177.69229872910284 386.0139444524583C200.76922209946417 429.5454131617682 274.5454443284681 481.99297887628666 319.3006895372083 480.4195535833179C364.05593474594855 478.8461282903491 428.5664289781263 423.07688950047265 446.22376998154425 376.5733926946458C463.8811109849622 330.06989588881896 447.0978824286471 247.72724452163146 425.2447355577161 201.39857274835674C403.39158868678516 155.069900975082 355.8391531297376 95.62933395848043 315.1048887559583 98.60136205499737C274.370624382179 101.5733901515143 203.74124765284958 171.3286442612148 180.83914931504034 219.2307413274583 " fill="hsl(105, 69%, 40%)" transform="matrix(1.336745401523438,0,0,1.336745401523438,-103.64212733649538,-97.47908941501328)" fill-opacity="0.37" stroke-width="25" stroke="hsl(105, 69%, 30%)" stroke-opacity="0.63"></path><path d="M235.9959086910178 23.64061790303751C195.2616443172385 26.612645999554445 124.63226758790907 96.36790010925495 101.73016925009983 144.26999717549845C78.82807091229058 192.17209424174192 75.506395293801 267.52173159118854 98.58331866416233 311.0532003004985C121.66024203452366 354.5846690098083 195.43646426352757 407.0322347243267 240.1917094722678 405.45880943135796C284.94695468100804 403.8853841383892 349.4574489131858 348.11614534851276 367.11478991660374 301.612648542686C384.7721309200217 255.10915173685908 367.9889023637066 172.7665003696716 346.1357554927756 126.43782859639688C324.28260862184464 80.10915682312213 276.7301730647971 20.668589806520572 235.9959086910178 23.64061790303751C195.2616443172385 26.612645999554445 124.63226758790907 96.36790010925495 101.73016925009983 144.26999717549845 " fill-opacity="0.86" fill="hsl(105, 69%, 40%)" opacity="1" stroke-opacity="0.56" stroke-width="35" stroke="hsl(105, 69%, 30%)" transform="matrix(0.9452559374999998,0,0,0.9452559374999998,90.0537156962252,88.27751485124116)"></path></svg>